<svg xmlns="http://www.w3.org/2000/svg" xmlns:xlink="http://www.w3.org/1999/xlink" width="109" height="86" viewBox="0 0 109 86">
  <defs>
    <polygon id="109x86_delivery_takeout-a" points="0 0 109 0 109 86 0 86"/>
  </defs>
  <g fill="none" fill-rule="evenodd">
    <mask id="109x86_delivery_takeout-b" fill="#fff">
      <use xlink:href="#109x86_delivery_takeout-a"/>
    </mask>
    <polygon fill="#EEEEEF" fill-rule="nonzero" points="115.5 86 115.5 55 111.5 55 111.5 28.3 102 18.84 92.5 28.3 92.5 44 80.04 44 75.45 35 69.5 35 69.5 16 46.5 16 46.5 44 38.5 44 38.5 28.77 34 24 16.55 24 11.5 28.68 11.5 86" mask="url(#109x86_delivery_takeout-b)"/>
    <polygon fill="#FFF" fill-rule="nonzero" points="97.04 30.14 98.93 30.14 98.93 34.87 97.04 34.87" mask="url(#109x86_delivery_takeout-b)"/>
    <polygon fill="#FFF" fill-rule="nonzero" points="50.5 21 52.5 21 52.5 25 50.5 25" mask="url(#109x86_delivery_takeout-b)"/>
    <polygon fill="#FFF" fill-rule="nonzero" points="50.5 28 52.5 28 52.5 32 50.5 32" mask="url(#109x86_delivery_takeout-b)"/>
    <polygon fill="#FFF" fill-rule="nonzero" points="15.5 37 17.5 37 17.5 41 15.5 41" mask="url(#109x86_delivery_takeout-b)"/>
    <polygon fill="#FFF" fill-rule="nonzero" points="15.5 44 17.5 44 17.5 48 15.5 48" mask="url(#109x86_delivery_takeout-b)"/>
    <polygon fill="#FFF" fill-rule="nonzero" points="54.5 21 56.5 21 56.5 25 54.5 25" mask="url(#109x86_delivery_takeout-b)"/>
    <ellipse cx="98.36" cy="43.85" fill="#FFF" fill-rule="nonzero" mask="url(#109x86_delivery_takeout-b)" rx="3.87" ry="5.25"/>
    <path fill="#F48889" fill-rule="nonzero" d="M96.5,38 L99.5,38 L99.5,50 L96.5,50 C93.1862915,50 90.5,47.3137085 90.5,44 L90.5,44 C90.5,40.6862915 93.1862915,38 96.5,38 Z" mask="url(#109x86_delivery_takeout-b)"/>
    <path fill="#000" fill-rule="nonzero" d="M29.8393877,53.1099522 C30.1055126,52.843544 30.5221633,52.8191162 30.8158907,53.0368144 L30.9000478,53.1093877 L40.3000478,62.4993877 C40.5930968,62.792125 40.5933496,63.2669987 40.3006123,63.5600478 C40.0344874,63.826456 39.6178367,63.8508838 39.3241093,63.6331856 L39.2399522,63.5606123 L29.8399522,54.1706123 C29.5469032,53.877875 29.5466504,53.4030013 29.8393877,53.1099522 Z" mask="url(#109x86_delivery_takeout-b)"/>
    <polygon fill="#7E7C88" fill-rule="nonzero" points="24.5 38 45.5 38 45.5 54 24.5 54" mask="url(#109x86_delivery_takeout-b)"/>
    <polygon fill="#A3A1AA" fill-rule="nonzero" points="23.5 33 46.5 33 46.5 39 23.5 39" mask="url(#109x86_delivery_takeout-b)"/>
    <path fill="#000" fill-rule="nonzero" d="M57.9 52.86C58.3142136 52.86 58.65 53.1957864 58.65 53.61 58.65 53.9896958 58.3678461 54.303491 58.0017706 54.3531534L57.9 54.36 23.74 54.36C23.3257864 54.36 22.99 54.0242136 22.99 53.61 22.99 53.2303042 23.2721539 52.916509 23.6382294 52.8668466L23.74 52.86 57.9 52.86zM84.49 28.25C84.7411477 28.25 84.9730229 28.3754195 85.1111805 28.5796862L85.164436 28.6719207 88.754436 36.0519207C88.9356292 36.4244014 88.7805601 36.8732428 88.4080793 37.054436 88.0666386 37.2205298 87.6610338 37.1040698 87.4562392 36.7966013L87.405564 36.7080793 84.02 29.749 76.5 29.75C76.1203042 29.75 75.806509 29.4678461 75.7568466 29.1017706L75.75 29C75.75 28.6203042 76.0321539 28.306509 76.3982294 28.2568466L76.5 28.25 84.49 28.25z" mask="url(#109x86_delivery_takeout-b)"/>
    <circle cx="46.93" cy="75.75" r="11.06" fill="#000" fill-rule="nonzero" mask="url(#109x86_delivery_takeout-b)"/>
    <circle cx="46.93" cy="75.75" r="7.01" fill="#7E7C88" fill-rule="nonzero" mask="url(#109x86_delivery_takeout-b)"/>
    <path fill="#FFF" fill-rule="nonzero" d="M46.93,71.2 C44.4171044,71.2 42.38,73.2371044 42.38,75.75 C42.38,78.2628956 44.4171044,80.3 46.93,80.3 C49.4428956,80.3 51.48,78.2628956 51.48,75.75 C51.48,73.2371044 49.4428956,71.2 46.93,71.2 Z M46.93,72.7 C48.6144685,72.7 49.98,74.0655315 49.98,75.75 C49.98,77.4344685 48.6144685,78.8 46.93,78.8 C45.2455315,78.8 43.88,77.4344685 43.88,75.75 C43.88,74.0655315 45.2455315,72.7 46.93,72.7 Z" mask="url(#109x86_delivery_takeout-b)"/>
    <circle cx="101.83" cy="75.75" r="11.06" fill="#000" fill-rule="nonzero" mask="url(#109x86_delivery_takeout-b)"/>
    <circle cx="101.83" cy="75.75" r="7.01" fill="#7E7C88" fill-rule="nonzero" mask="url(#109x86_delivery_takeout-b)"/>
    <path fill="#FFF" fill-rule="nonzero" d="M101.83,71.2 C99.3171044,71.2 97.28,73.2371044 97.28,75.75 C97.28,78.2628956 99.3171044,80.3 101.83,80.3 C104.342896,80.3 106.38,78.2628956 106.38,75.75 C106.38,73.2371044 104.342896,71.2 101.83,71.2 Z M101.83,72.7 C103.514468,72.7 104.88,74.0655315 104.88,75.75 C104.88,77.4344685 103.514468,78.8 101.83,78.8 C100.145532,78.8 98.78,77.4344685 98.78,75.75 C98.78,74.0655315 100.145532,72.7 101.83,72.7 Z" mask="url(#109x86_delivery_takeout-b)"/>
    <path fill="#F43939" fill-rule="nonzero" d="M71.72,75 L31.48,75 L34.59,65.14 C36.7015694,58.5167309 42.8482952,54.0147897 49.8,54 L63.8,54 L71.72,75 Z" mask="url(#109x86_delivery_takeout-b)"/>
    <polygon fill="#F43939" fill-rule="nonzero" points="63.5 71 102.5 71 102.5 75 63.5 75" mask="url(#109x86_delivery_takeout-b)"/>
    <path fill="#F48889" fill-rule="nonzero" d="M63.5,77 L30.5,77 L30.5,76.4 C30.5,67.3425301 37.8425301,60 46.9,60 L47.1,60 C56.1574699,60 63.5,67.3425301 63.5,76.4 L63.5,77 Z" mask="url(#109x86_delivery_takeout-b)"/>
    <path fill="#EFBC9B" fill-rule="nonzero" d="M69.500024,54 L47.4999759,54 L47.4999759,47.1 C47.4973248,46.5422296 47.717715,46.0065306 48.1121228,45.6121228 C48.5065306,45.217715 49.0422296,44.9973248 49.6,44.9999759 L67.39,44.9999759 C67.9504226,44.9973249 68.488665,45.2187687 68.8849482,45.6150518 C69.2812313,46.011335 69.5026751,46.5495774 69.500024,47.11 L69.500024,54 Z" mask="url(#109x86_delivery_takeout-b)"/>
    <path fill="#F43939" fill-rule="nonzero" d="M86.76,31.52 L105.55,72.43 L77.91,72.43 C84.58,71.43 89.56,69.33 88.97,63.59 L82.21,49.4 C79.6326818,43.9812751 80.7505588,37.526437 85,33.29 L86.76,31.52 Z" mask="url(#109x86_delivery_takeout-b)"/>
    <path fill="#F48889" fill-rule="nonzero" d="M115.499996,76.9999963 L88.4999963,76.9999963 L88.4999963,76.4999963 C88.4973443,72.9187639 89.9188088,69.4834428 92.4511258,66.9511258 C94.9834428,64.4188088 98.4187639,62.9973443 101.999996,62.9999963 L101.999996,62.9999963 C105.581236,62.9973443 109.016557,64.4188088 111.548874,66.9511258 C114.081191,69.4834428 115.502656,72.9187639 115.499996,76.4999963 L115.499996,76.9999963 Z" mask="url(#109x86_delivery_takeout-b)"/>
    <path fill="#000" fill-rule="nonzero" d="M55.5 72.25C55.9142136 72.25 56.25 72.5857864 56.25 73 56.25 73.3796958 55.9678461 73.693491 55.6017706 73.7431534L55.5 73.75 30.5 73.75C30.0857864 73.75 29.75 73.4142136 29.75 73 29.75 72.6203042 30.0321539 72.306509 30.3982294 72.2568466L30.5 72.25 55.5 72.25zM104.5 72.25C104.914214 72.25 105.25 72.5857864 105.25 73 105.25 73.3796958 104.967846 73.693491 104.601771 73.7431534L104.5 73.75 88.5 73.75C88.0857864 73.75 87.75 73.4142136 87.75 73 87.75 72.6203042 88.0321539 72.306509 88.3982294 72.2568466L88.5 72.25 104.5 72.25z" mask="url(#109x86_delivery_takeout-b)"/>
    <path fill="#B07157" fill-rule="nonzero" d="M55.5,44.25 C55.8796958,44.25 56.193491,44.5321539 56.2431534,44.8982294 L56.25,45 L56.25,53 C56.25,53.4142136 55.9142136,53.75 55.5,53.75 C55.1203042,53.75 54.806509,53.4678461 54.7568466,53.1017706 L54.75,53 L54.75,45 C54.75,44.5857864 55.0857864,44.25 55.5,44.25 Z" mask="url(#109x86_delivery_takeout-b)"/>
    <polygon fill="#EEEEEF" fill-rule="nonzero" points="7.5 69 17.5 69 17.5 86 7.5 86" mask="url(#109x86_delivery_takeout-b)"/>
  </g>
</svg>
