<svg xmlns="http://www.w3.org/2000/svg" id="Layer_1" data-name="Layer 1" width="109" height="86" viewBox="0 0 109 86"><defs><style>.cls-1,.cls-13,.cls-6,.cls-7{fill:none;}.cls-2{fill:#bbbac0;}.cls-3,.cls-4{fill:#dbdbde;}.cls-4{stroke:#bbbac0;}.cls-13,.cls-4,.cls-7,.cls-8,.cls-9{stroke-miterlimit:10;}.cls-11,.cls-13,.cls-4,.cls-7{stroke-width:1.5px;}.cls-5{fill:#ef3c3c;}.cls-11,.cls-6{stroke:#000;}.cls-10,.cls-11,.cls-6{stroke-linejoin:round;}.cls-6{stroke-width:3px;}.cls-7{stroke:#ef3c3c;}.cls-8{fill:#a3a1aa;stroke:#a3a1aa;}.cls-9{fill:#f48889;stroke:#f48889;}.cls-10{fill:#efbc9b;stroke:#efbc9b;stroke-width:2px;}.cls-11{fill:#fff;}.cls-12{fill:#b07157;}.cls-13{stroke:#dbdbde;stroke-linecap:round;}</style></defs><title>109x86_takeout</title><rect class="cls-1" x="0.22" width="109" height="86"/><polygon class="cls-2" points="89.5 20 64.5 20 65.5 15 88.5 15 89.5 20"/><path class="cls-3" d="M93.5,31V18.25L88.5,15V31H82v.5a5,5,0,0,1-10,0V31H65.5V15l-5,3.29V31h-9V86h51V31Z"/><path class="cls-4" d="M62.5,41h25a4,4,0,0,1,4,4v5a0,0,0,0,1,0,0h-25a4,4,0,0,1-4-4V41A0,0,0,0,1,62.5,41Z"/><polygon class="cls-5" points="25.28 82.92 50.02 74.68 51.5 55.66 23.27 65.06 25.28 82.92"/><polyline class="cls-6" points="38.2 44.24 35.24 25 23.27 33.55"/><polygon class="cls-7" points="48.48 87 25.48 87 21.48 44 52.48 44 48.48 87"/><polygon class="cls-8" points="48.05 43.5 25.91 43.5 27.75 39.5 46.2 39.5 48.05 43.5"/><polygon class="cls-9" points="53.98 46.5 19.98 46.5 20.98 42.5 52.98 42.5 53.98 46.5"/><polygon class="cls-10" points="67.17 85 38.83 85 34.39 69 71.61 69 67.17 85"/><path class="cls-11" d="M43.05,54H63a5,5,0,0,1,4.82,3.66L70.92,69H35.08l3.15-11.34A5,5,0,0,1,43.05,54Z"/><polygon class="cls-11" points="73.06 71 32.94 71 33.94 68 72.06 68 73.06 71"/><circle class="cls-12" cx="53" cy="77" r="1.72"/><circle class="cls-12" cx="44.39" cy="77" r="1.72"/><circle class="cls-12" cx="61.61" cy="77" r="1.72"/><line class="cls-13" x1="64.5" y1="64" x2="41.5" y2="64"/></svg>
